# xmcd
#
# Track frame offsets:
#	150
#	12963
#	22837
#	33926
#	45440
#	57598
#	67614
#	77843
#	86787
#	97096
#	108168
#	120079
#	131983
#	142487
#	153688
#	166226
#	176981
#	187635
#	199351
#	207964
#
# Disc length: 2916 seconds
#
# Revision: 0
# Processed by: cddbd v1.5.1PL0 Copyright (c) Steve Scherf et al.
# Submitted via: EasyCDDAExtractor 7.5.2.1
#
DISCID=110b6214
DTITLE=Voninho - Os Grandes Sucessos
DYEAR=1900
DGENRE=Country
TTITLE0=Dois Pra La Dois Pra Ca
TTITLE1=Dancando Com Meu Bem
TTITLE2=Fogo No Molhado
TTITLE3=Passo Do Galo
TTITLE4=Serra Dourada
TTITLE5=Goiano Do Pe Quente
TTITLE6=De Joelho No Chao
TTITLE7=Pertinho Do Meu Bem
TTITLE8=Recordando Passado
TTITLE9=Lembrando Dela
TTITLE10=Bateria De Velho
TTITLE11=Sanfona Misteriosa
TTITLE12=Sanfona Lascada
TTITLE13=Pisando No Salao
TTITLE14=Ela E Boa
TTITLE15=Baile Na Fazenda
TTITLE16=Quentao Do Baile
TTITLE17=Forro Em Brasilia
TTITLE18=Amanhecer Na Roca
TTITLE19=Pe De Bode Quente
EXTD=
EXTT0=
EXTT1=
EXTT2=
EXTT3=
EXTT4=
EXTT5=
EXTT6=
EXTT7=
EXTT8=
EXTT9=
EXTT10=
EXTT11=
EXTT12=
EXTT13=
EXTT14=
EXTT15=
EXTT16=
EXTT17=
EXTT18=
EXTT19=
PLAYORDER=
